<svg class="icon" viewBox="0 0 1024 1024" xmlns="http://www.w3.org/2000/svg" width="200" height="200"><defs><style/></defs><path d="M677.461 673.579a61.312 61.312 0 00-6.57-122.283h-2.176a61.099 61.099 0 00-58.966 63.317c1.11 16.384 7.68 30.592 17.494 40.406-37.12 73.13-93.867 126.634-179.072 171.392-57.856 30.549-117.888 41.472-177.92 33.834-49.152-6.528-87.339-28.373-111.36-64.426-34.944-53.462-38.23-111.36-8.747-169.174 20.736-41.514 53.504-72.106 74.24-87.338a588.97 588.97 0 01-14.208-55.68C51.883 598.229 68.266 753.28 116.309 826.41c36.011 54.613 109.184 88.448 189.952 88.448a268.373 268.373 0 0065.494-7.68c139.776-27.307 245.632-110.251 305.706-233.6z" fill="#61dafb"/><path d="M869.59 538.197c-82.987-97.152-205.227-150.656-344.96-150.656h-17.494a59.99 59.99 0 00-53.504-32.768h-2.133a61.099 61.099 0 00-58.966 63.36 61.312 61.312 0 0061.099 58.966h2.219a61.483 61.483 0 0053.461-37.12h19.627c83.029 0 161.621 24.021 232.533 70.954 54.613 36.054 93.91 82.987 115.755 139.776 18.56 45.824 17.493 90.582-2.176 128.811-30.55 57.856-81.878 89.515-149.547 89.515a279.21 279.21 0 01-107.008-22.912c-11.99 10.88-33.835 28.373-49.11 39.253 46.934 21.845 94.977 33.877 140.8 33.877 104.833 0 182.315-57.856 211.798-115.712 31.659-63.317 29.483-172.501-52.395-265.301z" fill="#61dafb"/><path d="M315.008 692.139a61.312 61.312 0 0061.141 58.965h2.134a61.099 61.099 0 0059.008-63.36 61.312 61.312 0 00-61.142-58.923h-2.176c-2.218 0-5.461 0-7.68 1.067-44.757-74.24-63.317-155.008-56.746-242.347 4.352-65.493 26.197-122.282 64.426-169.216 31.659-40.405 92.758-60.032 134.272-61.141 115.712-2.176 164.822 141.91 168.107 199.808 14.208 3.243 38.23 10.88 54.613 16.341C717.824 196.48 608.683 104.79 503.851 104.79c-98.219 0-188.843 70.955-224.854 175.787-50.261 139.733-17.493 274.005 43.648 379.904a49.067 49.067 0 00-7.68 31.659z" fill="#61dafb"/></svg>